<?xml version="1.0" encoding="utf-8"?>
<!-- Generator: Adobe Illustrator 19.2.1, SVG Export Plug-In . SVG Version: 6.00 Build 0)  -->
<!DOCTYPE svg PUBLIC "-//W3C//DTD SVG 1.1//EN" "http://www.w3.org/Graphics/SVG/1.1/DTD/svg11.dtd">
<svg version="1.1" id="Layer_1" xmlns="http://www.w3.org/2000/svg" xmlns:xlink="http://www.w3.org/1999/xlink" x="0px" y="0px"
	 viewBox="0 0 624.3 112.2" style="enable-background:new 0 0 624.3 112.2;" xml:space="preserve">
<style type="text/css">
	.st0{fill:#315FAC;}
	.st1{fill:#E5592E;}
</style>
<path class="st0" d="M141.2,48.1c-4.8,0-7.2-2.1-7.2-6.5c0-1.6,0.2-3,0.8-4.1c0.5-1.1,0.8-1.9,1.1-2.3h12.3V28
	c0-4.7,0.7-8.8,2.1-12.3c1.4-3.5,3.4-6.4,5.9-8.8c2.5-2.3,5.6-4.1,9.2-5.3c3.5-1.1,7.4-1.7,11.6-1.7c5,0,8.7,0.4,11.1,1.1
	c2.4,0.8,4.1,1.4,5.1,1.9c1,0.5,2,1.2,3,2.1c1,0.9,1.5,2.3,1.5,4.2c0,1.6-0.4,3.1-1.3,4.4c-0.9,1.3-1.7,2.4-2.6,3.1
	c-0.9-0.8-2.5-1.8-5-3.1c-2.4-1.2-5.5-1.9-9.3-1.9c-3.1,0-5.7,0.4-7.7,1.3c-2.1,0.9-3.7,2-4.9,3.5c-1.2,1.5-2,3.3-2.5,5.3
	c-0.5,2.1-0.7,4.3-0.7,6.7v6.6h17c4.7,0,7,2.2,7,6.4c0,1.6-0.2,3-0.7,4.1c-0.5,1.2-0.8,1.9-1,2.3h-22.3v63.4h-15.6V48.1H141.2z"/>
<path class="st0" d="M249.7,97.4c-3.5,1.1-8,1.6-13.4,1.6c-7.1,0-12.7-2.4-16.8-5.6c-4.2-3.2-6.7-7.7-7.5-14.7h33.5
	c7.4,0,12.6-0.8,15.6-4c3.1-3.2,4.6-7.1,4.6-12.7c0-4-0.7-7.5-2.1-10.8c-1.4-3.3-3.4-6.1-6-8.6c-2.6-2.4-5.9-4.3-9.9-5.7
	c-4-1.4-8.5-2.1-13.7-2.1c-5.5,0-10.6,1-15.2,2.9c-4.6,1.9-8.5,4.6-11.9,8.1c-3.3,3.5-5.9,7.6-7.8,12.5c-1.9,4.8-2.8,10.1-2.8,16
	c0,6.2,1,11.7,2.9,16.3c2,4.7,4.7,8.5,8.1,11.6c3.4,3.1,7.5,5.3,12.1,6.9c4.6,1.5,9.6,2.3,15,2.3c3.6,0,7-0.3,10.1-0.8
	c3.1-0.5,5.8-1.1,8.2-1.8c2.3-0.7,4.2-1.4,5.7-2.1c1.5-0.7,2.5-1.2,2.9-1.5l-4.6-10.7C255.5,95.4,253.2,96.3,249.7,97.4z
	 M213.1,61.5c1-2.8,2.4-5.4,4.2-7.6c1.9-2.3,4.2-4.2,6.9-5.6c2.8-1.5,6-2.2,9.6-2.2c3.2,0,5.8,0.5,8.1,1.4c2.2,0.9,4.1,2.1,5.5,3.5
	s2.5,3.1,3.1,4.9c0.6,1.8,0.9,3.6,0.9,5.4c0,3.3-0.8,5.6-2.3,6.8c-1.5,1.2-4,1.8-7.4,1.8h-30.2C211.6,67.8,212.1,64.3,213.1,61.5z"
	/>
<path class="st1" d="M425.3,38.5c-0.6,2.2-1.6,5.1-3.1,8.8c-1.5,3.7-3.1,7.7-5,12.2c-1.9,4.5-4,9.2-6.2,14.2
	c-2.3,5-4.5,9.8-6.8,14.4c-2.3,4.6-4.4,9-6.5,13c-2.1,4-3.8,7.4-5.3,10.1h-16c-1.8-3.2-3.7-6.7-5.6-10.6c-2-3.8-3.9-7.7-5.8-11.7
	c-2-3.9-3.8-7.9-5.6-11.8c-1.8-3.9-3.5-7.5-5-10.9c-1.6-3.3-2.9-6.3-4-8.9c-1.2-2.6-2-4.6-2.6-6c-0.6-1.4-1.2-2.9-1.8-4.5
	c-0.6-1.6-0.9-3.1-0.9-4.5c0-1.8,0.6-3.4,1.8-4.9c1.2-1.5,3.2-2.3,6.2-2.3c2,0,3.5,0.2,4.7,0.6c1.1,0.4,1.7,0.7,1.8,0.8
	c1.7,4.7,3.7,9.9,5.9,15.5c2.3,5.6,4.5,11.1,6.9,16.6c2.3,5.5,4.6,10.6,6.8,15.6c2.2,5,4.1,9.1,5.9,12.5c1.2-2.3,2.8-5.6,4.7-9.8
	c2-4.2,4-8.9,6.2-14c2.1-5.1,4.3-10.4,6.5-15.8c2.2-5.4,4.1-10.4,5.9-14.9c0.8-2.2,1.8-3.9,3-5.2c1.2-1.2,3.2-1.9,6-1.9
	c2.4,0,4.3,0.4,5.8,1.3C424.2,37.5,425.1,38.2,425.3,38.5z"/>
<path class="st1" d="M457.2,9.4c0,2.6-1,4.8-2.8,6.7c-1.9,1.9-4.2,2.8-6.9,2.8c-2.6,0-4.9-0.9-6.8-2.8c-1.9-1.8-2.8-4.1-2.8-6.7
	c0-2.6,0.9-4.8,2.8-6.7c1.9-1.8,4.1-2.8,6.8-2.8c2.7,0,5,0.9,6.9,2.8C456.3,4.6,457.2,6.9,457.2,9.4z"/>
<path class="st1" d="M439.8,42.4c0-2.5,0.7-4.3,2.2-5.5c1.4-1.1,3.5-1.7,6.1-1.7c1.7,0,3.2,0.2,4.6,0.5c1.4,0.4,2.3,0.6,2.8,0.8
	v74.7h-15.6V42.4z"/>
<path class="st1" d="M482.1,7.1c0-2.4,0.7-4.2,2.2-5.4c1.4-1.2,3.5-1.7,6.1-1.7c1.7,0,3.2,0.2,4.6,0.6c1.4,0.4,2.3,0.7,2.8,0.9
	v110.3h-15.6V7.1z"/>
<path class="st1" d="M524.4,7.1c0-2.4,0.7-4.2,2.2-5.4c1.4-1.2,3.5-1.7,6.1-1.7c1.7,0,3.2,0.2,4.6,0.6c1.4,0.4,2.3,0.7,2.8,0.9
	v109.8h-15.6V7.1z"/>
<path class="st0" d="M298.7,63.1l-0.1,49.1h-15.5V61"/>
<path class="st0" d="M283.1,63.5c0-4.7,0.7-8.8,2.1-12.3c1.4-3.5,3.4-6.4,5.9-8.8c2.5-2.3,5.6-4.1,9.2-5.3c3.5-1.1,7.4-1.7,11.6-1.7
	c5,0,8.7,0.4,11.1,1.1c2.4,0.8,4.1,1.4,5.1,1.9c1,0.5,2,1.2,3,2.1c1,0.9,1.5,2.3,1.5,4.2c0,1.6-0.4,3.1-1.3,4.4
	c-0.9,1.3-1.7,2.4-2.6,3.1c-0.9-0.8-2.5-1.8-5-3.1c-2.4-1.2-5.5-1.9-9.3-1.9c-3.1,0-5.7,0.4-7.7,1.3c-2.1,0.9-3.7,2-4.9,3.5
	c-1.2,1.5-2,3.3-2.5,5.3c-0.5,2.1-0.7,4.3-0.7,6.7"/>
<path class="st0" d="M15.6,63l-0.1,49.1H0V60.9"/>
<path class="st0" d="M0,63.4c0-4.7,0.7-8.8,2.1-12.3c1.4-3.5,3.4-6.4,5.9-8.8c2.5-2.3,5.6-4.1,9.2-5.3c3.5-1.1,7.4-1.7,11.6-1.7
	c5,0,8.7,0.4,11.1,1.1c2.4,0.8,4.1,1.4,5.1,1.9c1,0.5,2,1.2,3,2.1c1,0.9,1.5,2.3,1.5,4.2c0,1.6-0.4,3.1-1.3,4.4
	c-0.9,1.3-1.7,2.4-2.6,3.1c-0.9-0.8-2.5-1.8-5-3.1c-2.4-1.2-5.5-1.9-9.3-1.9c-3.1,0-5.7,0.4-7.7,1.3c-2.1,0.9-3.7,2-4.9,3.5
	c-1.2,1.5-2,3.3-2.5,5.3c-0.5,2.1-0.7,4.3-0.7,6.7"/>
<path class="st0" d="M109.1,97.4c-3.5,1.1-8,1.6-13.4,1.6c-7.1,0-12.7-2.4-16.8-5.6c-4.2-3.2-6.7-7.7-7.5-14.7h33.5
	c7.4,0,12.6-0.8,15.6-4c3.1-3.2,4.6-7.1,4.6-12.7c0-4-0.7-7.5-2.1-10.8c-1.4-3.3-3.4-6.1-6-8.6c-2.6-2.4-5.9-4.3-9.9-5.7
	c-4-1.4-8.5-2.1-13.7-2.1c-5.5,0-10.6,1-15.2,2.9c-4.6,1.9-8.5,4.6-11.9,8.1c-3.3,3.5-5.9,7.6-7.8,12.5c-1.9,4.8-2.8,10.1-2.8,16
	c0,6.2,1,11.7,2.9,16.3c2,4.7,4.7,8.5,8.1,11.6c3.4,3.1,7.5,5.3,12.1,6.9c4.6,1.5,9.6,2.3,15,2.3c3.6,0,7-0.3,10.1-0.8
	c3.1-0.5,5.8-1.1,8.2-1.8c2.3-0.7,4.2-1.4,5.7-2.1c1.5-0.7,2.5-1.2,2.9-1.5l-4.6-10.7C114.9,95.4,112.6,96.3,109.1,97.4z M72.5,61.5
	c1-2.8,2.4-5.4,4.2-7.6c1.9-2.3,4.2-4.2,6.9-5.6c2.8-1.5,6-2.2,9.6-2.2c3.2,0,5.8,0.5,8.1,1.4c2.2,0.9,4.1,2.1,5.5,3.5
	c1.4,1.4,2.5,3.1,3.1,4.9c0.6,1.8,0.9,3.6,0.9,5.4c0,3.3-0.8,5.6-2.3,6.8c-1.5,1.2-4,1.8-7.4,1.8H70.9C71,67.8,71.5,64.3,72.5,61.5z
	"/>
<path class="st1" d="M608.3,97.4c-3.5,1.1-8,1.6-13.4,1.6c-7.1,0-12.7-2.4-16.8-5.6c-4.2-3.2-6.7-7.6-7.5-14.6h33.5
	c7.4,0,12.6-0.8,15.6-4c3.1-3.2,4.6-7.1,4.6-12.7c0-4-0.7-7.5-2.1-10.8c-1.4-3.3-3.4-6.1-6-8.6c-2.6-2.4-5.9-4.3-9.9-5.7
	c-4-1.4-8.5-2.1-13.7-2.1c-5.5,0-10.6,1-15.2,2.9c-4.6,1.9-8.5,4.6-11.9,8.1c-3.3,3.5-5.9,7.6-7.8,12.5c-1.9,4.8-2.8,10.1-2.8,16
	c0,6.2,1,11.7,2.9,16.3c2,4.7,4.7,8.5,8.1,11.6c3.4,3.1,7.5,5.3,12.1,6.9c4.6,1.5,9.6,2.3,15,2.3c3.6,0,7-0.3,10.1-0.8
	c3.1-0.5,5.8-1.1,8.2-1.8c2.3-0.7,4.2-1.4,5.7-2.1c1.5-0.7,2.5-1.2,2.9-1.5l-4.6-10.7C614.1,95.4,611.8,96.3,608.3,97.4z
	 M571.7,61.4c1-2.8,2.4-5.4,4.2-7.7c1.9-2.3,4.2-4.2,6.9-5.7c2.8-1.5,6-2.2,9.6-2.2c3.2,0,5.8,0.5,8.1,1.4c2.2,0.9,4.1,2.1,5.5,3.5
	s2.5,3.1,3.1,4.9c0.6,1.8,0.9,3.6,0.9,5.4c0,3.3-0.8,5.6-2.3,6.9c-1.5,1.2-4,1.8-7.4,1.8h-30.2C570.2,67.8,570.7,64.3,571.7,61.4z"
	/>
</svg>
